<?xml version="1.0" standalone="no"?>
<!DOCTYPE svg PUBLIC "-//W3C//DTD SVG 20010904//EN"
 "http://www.w3.org/TR/2001/REC-SVG-20010904/DTD/svg10.dtd">
<svg version="1.0" xmlns="http://www.w3.org/2000/svg"
 width="300.000000pt" height="300.000000pt" viewBox="0 0 300.000000 300.000000"
 preserveAspectRatio="xMidYMid meet">
<metadata>
Created by potrace 1.11, written by Peter Selinger 2001-2013
</metadata>
<g transform="translate(0.000000,300.000000) scale(0.100000,-0.100000)"
fill="#000000" stroke="none">
<path d="M0 1500 l0 -1500 1500 0 1500 0 0 1500 0 1500 -1500 0 -1500 0 0
-1500z m829 153 c36 -145 68 -263 71 -263 3 0 43 118 90 263 l86 262 89 0 89
0 85 -272 c47 -149 88 -270 92 -267 3 2 9 18 13 36 4 18 34 140 68 271 l61
239 261 -4 c278 -5 312 -10 417 -63 63 -32 142 -122 170 -193 19 -47 23 -77
24 -167 0 -105 -2 -114 -33 -177 -40 -82 -100 -143 -181 -186 -91 -49 -168
-62 -378 -62 l-183 0 -2 258 -3 257 -75 -258 -75 -258 -85 3 -85 3 -90 282
c-49 155 -92 284 -95 287 -3 3 -46 -124 -96 -282 l-91 -287 -83 0 -82 0 -124
415 c-68 228 -123 419 -124 423 0 4 46 6 102 5 l102 -3 65 -262z"/>
<path d="M1850 1494 l0 -257 111 5 c141 7 206 36 254 112 28 46 30 56 30 145
0 88 -2 99 -27 134 -54 79 -147 117 -285 117 l-83 0 0 -256z m220 36 c11 -11
20 -29 20 -40 0 -11 -9 -29 -20 -40 -11 -11 -29 -20 -40 -20 -11 0 -29 9 -40
20 -11 11 -20 29 -20 40 0 11 9 29 20 40 11 11 29 20 40 20 11 0 29 -9 40 -20z"/>
</g>
</svg>
